<svg xmlns="http://www.w3.org/2000/svg" xmlns:xlink="http://www.w3.org/1999/xlink" width="500" zoomAndPan="magnify" viewBox="0 0 375 374.999991" height="500" preserveAspectRatio="xMidYMid meet" version="1.0"><defs><g/></defs><rect x="-37.5" width="450" fill="#ffffff" y="-37.499999" height="449.999989" fill-opacity="1"/><rect x="-37.5" width="450" fill="#ffffff" y="-37.499999" height="449.999989" fill-opacity="1"/><g fill="#111026" fill-opacity="1"><g transform="translate(13.802543, 216.610323)"><g><path d="M 53.8125 -39.125 L 53.8125 -25.1875 C 53.8125 -16.6875 51.738281 -10.160156 47.59375 -5.609375 C 43.445312 -1.066406 37.328125 1.203125 29.234375 1.203125 C 21.140625 1.203125 15.015625 -1.066406 10.859375 -5.609375 C 6.710938 -10.160156 4.640625 -16.6875 4.640625 -25.1875 L 4.640625 -79.75 C 4.640625 -88.238281 6.710938 -94.757812 10.859375 -99.3125 C 15.015625 -103.863281 21.140625 -106.140625 29.234375 -106.140625 C 37.328125 -106.140625 43.445312 -103.863281 47.59375 -99.3125 C 51.738281 -94.757812 53.8125 -88.238281 53.8125 -79.75 L 53.8125 -69.5625 L 38.21875 -69.5625 L 38.21875 -80.796875 C 38.21875 -84.597656 37.441406 -87.269531 35.890625 -88.8125 C 34.347656 -90.363281 32.28125 -91.140625 29.6875 -91.140625 C 27.082031 -91.140625 25.003906 -90.363281 23.453125 -88.8125 C 21.910156 -87.269531 21.140625 -84.597656 21.140625 -80.796875 L 21.140625 -24.140625 C 21.140625 -20.335938 21.910156 -17.6875 23.453125 -16.1875 C 25.003906 -14.6875 27.082031 -13.9375 29.6875 -13.9375 C 32.28125 -13.9375 34.347656 -14.6875 35.890625 -16.1875 C 37.441406 -17.6875 38.21875 -20.335938 38.21875 -24.140625 L 38.21875 -39.125 Z M 53.8125 -39.125 "/></g></g></g><g fill="#111026" fill-opacity="1"><g transform="translate(71.665174, 216.610323)"><g><path d="M 6 -104.9375 L 22.484375 -104.9375 L 22.484375 0 L 6 0 Z M 6 -104.9375 "/></g></g></g><g fill="#111026" fill-opacity="1"><g transform="translate(100.146756, 216.610323)"><g><path d="M 1.5 -104.9375 L 52.46875 -104.9375 L 52.46875 -89.9375 L 35.234375 -89.9375 L 35.234375 0 L 18.734375 0 L 18.734375 -89.9375 L 1.5 -89.9375 Z M 1.5 -104.9375 "/></g></g></g><g fill="#111026" fill-opacity="1"><g transform="translate(154.111889, 216.610323)"><g><path d="M 21.4375 -34.78125 L 0.59375 -104.9375 L 17.84375 -104.9375 L 30.4375 -57.109375 L 43.015625 -104.9375 L 58.765625 -104.9375 L 37.921875 -34.78125 L 37.921875 0 L 21.4375 0 Z M 21.4375 -34.78125 "/></g></g></g><g fill="#00b2ff" fill-opacity="1"><g transform="translate(197.381706, 266.608272)"><g><path d="M 18.859375 -65.359375 C 24.023438 -65.359375 27.867188 -63.988281 30.390625 -61.25 C 32.910156 -58.507812 34.171875 -54.492188 34.171875 -49.203125 L 34.171875 -40.71875 C 34.171875 -35.425781 32.910156 -31.410156 30.390625 -28.671875 C 27.867188 -25.929688 24.023438 -24.5625 18.859375 -24.5625 L 14 -24.5625 L 14 0 L 3.734375 0 L 3.734375 -65.359375 Z M 14 -56.03125 L 14 -33.890625 L 18.859375 -33.890625 C 20.484375 -33.890625 21.726562 -34.328125 22.59375 -35.203125 C 23.46875 -36.078125 23.90625 -37.695312 23.90625 -40.0625 L 23.90625 -49.859375 C 23.90625 -52.222656 23.46875 -53.84375 22.59375 -54.71875 C 21.726562 -55.59375 20.484375 -56.03125 18.859375 -56.03125 Z M 14 -56.03125 "/></g></g></g><g fill="#00b2ff" fill-opacity="1"><g transform="translate(232.583304, 266.608272)"><g><path d="M 36.96875 0 L 26.609375 0 L 24.84375 -11.859375 L 12.234375 -11.859375 L 10.453125 0 L 1.03125 0 L 11.484375 -65.359375 L 26.515625 -65.359375 Z M 13.546875 -20.734375 L 23.4375 -20.734375 L 18.484375 -53.78125 Z M 13.546875 -20.734375 "/></g></g></g><g fill="#00b2ff" fill-opacity="1"><g transform="translate(270.586094, 266.608272)"><g><path d="M 2.421875 -49.671875 C 2.421875 -54.960938 3.679688 -59.023438 6.203125 -61.859375 C 8.722656 -64.691406 12.503906 -66.109375 17.546875 -66.109375 C 22.597656 -66.109375 26.382812 -64.691406 28.90625 -61.859375 C 31.425781 -59.023438 32.6875 -54.960938 32.6875 -49.671875 L 32.6875 -47.15625 L 22.96875 -47.15625 L 22.96875 -50.328125 C 22.96875 -52.691406 22.515625 -54.351562 21.609375 -55.3125 C 20.710938 -56.28125 19.453125 -56.765625 17.828125 -56.765625 C 16.210938 -56.765625 14.953125 -56.28125 14.046875 -55.3125 C 13.148438 -54.351562 12.703125 -52.691406 12.703125 -50.328125 C 12.703125 -48.085938 13.195312 -46.109375 14.1875 -44.390625 C 15.1875 -42.679688 16.429688 -41.0625 17.921875 -39.53125 C 19.421875 -38.007812 21.023438 -36.488281 22.734375 -34.96875 C 24.441406 -33.445312 26.039062 -31.78125 27.53125 -29.96875 C 29.03125 -28.164062 30.28125 -26.113281 31.28125 -23.8125 C 32.28125 -21.507812 32.78125 -18.800781 32.78125 -15.6875 C 32.78125 -10.394531 31.488281 -6.332031 28.90625 -3.5 C 26.320312 -0.664062 22.507812 0.75 17.46875 0.75 C 12.414062 0.75 8.597656 -0.664062 6.015625 -3.5 C 3.429688 -6.332031 2.140625 -10.394531 2.140625 -15.6875 L 2.140625 -20.171875 L 11.859375 -20.171875 L 11.859375 -15.03125 C 11.859375 -12.664062 12.335938 -11.015625 13.296875 -10.078125 C 14.265625 -9.148438 15.5625 -8.6875 17.1875 -8.6875 C 18.800781 -8.6875 20.085938 -9.148438 21.046875 -10.078125 C 22.015625 -11.015625 22.5 -12.664062 22.5 -15.03125 C 22.5 -17.269531 22 -19.242188 21 -20.953125 C 20.007812 -22.671875 18.765625 -24.289062 17.265625 -25.8125 C 15.773438 -27.34375 14.171875 -28.867188 12.453125 -30.390625 C 10.742188 -31.921875 9.144531 -33.585938 7.65625 -35.390625 C 6.164062 -37.191406 4.921875 -39.242188 3.921875 -41.546875 C 2.921875 -43.847656 2.421875 -46.554688 2.421875 -49.671875 Z M 2.421875 -49.671875 "/></g></g></g><g fill="#00b2ff" fill-opacity="1"><g transform="translate(305.507572, 266.608272)"><g><path d="M 2.421875 -49.671875 C 2.421875 -54.960938 3.679688 -59.023438 6.203125 -61.859375 C 8.722656 -64.691406 12.503906 -66.109375 17.546875 -66.109375 C 22.597656 -66.109375 26.382812 -64.691406 28.90625 -61.859375 C 31.425781 -59.023438 32.6875 -54.960938 32.6875 -49.671875 L 32.6875 -47.15625 L 22.96875 -47.15625 L 22.96875 -50.328125 C 22.96875 -52.691406 22.515625 -54.351562 21.609375 -55.3125 C 20.710938 -56.28125 19.453125 -56.765625 17.828125 -56.765625 C 16.210938 -56.765625 14.953125 -56.28125 14.046875 -55.3125 C 13.148438 -54.351562 12.703125 -52.691406 12.703125 -50.328125 C 12.703125 -48.085938 13.195312 -46.109375 14.1875 -44.390625 C 15.1875 -42.679688 16.429688 -41.0625 17.921875 -39.53125 C 19.421875 -38.007812 21.023438 -36.488281 22.734375 -34.96875 C 24.441406 -33.445312 26.039062 -31.78125 27.53125 -29.96875 C 29.03125 -28.164062 30.28125 -26.113281 31.28125 -23.8125 C 32.28125 -21.507812 32.78125 -18.800781 32.78125 -15.6875 C 32.78125 -10.394531 31.488281 -6.332031 28.90625 -3.5 C 26.320312 -0.664062 22.507812 0.75 17.46875 0.75 C 12.414062 0.75 8.597656 -0.664062 6.015625 -3.5 C 3.429688 -6.332031 2.140625 -10.394531 2.140625 -15.6875 L 2.140625 -20.171875 L 11.859375 -20.171875 L 11.859375 -15.03125 C 11.859375 -12.664062 12.335938 -11.015625 13.296875 -10.078125 C 14.265625 -9.148438 15.5625 -8.6875 17.1875 -8.6875 C 18.800781 -8.6875 20.085938 -9.148438 21.046875 -10.078125 C 22.015625 -11.015625 22.5 -12.664062 22.5 -15.03125 C 22.5 -17.269531 22 -19.242188 21 -20.953125 C 20.007812 -22.671875 18.765625 -24.289062 17.265625 -25.8125 C 15.773438 -27.34375 14.171875 -28.867188 12.453125 -30.390625 C 10.742188 -31.921875 9.144531 -33.585938 7.65625 -35.390625 C 6.164062 -37.191406 4.921875 -39.242188 3.921875 -41.546875 C 2.921875 -43.847656 2.421875 -46.554688 2.421875 -49.671875 Z M 2.421875 -49.671875 "/></g></g></g></svg>